<svg fill="none" height="80" viewBox="0 0 80 80" width="80" xmlns="http://www.w3.org/2000/svg"><circle cx="40" cy="40" fill="#28b1cc" r="40"/><g fill="#fff"><path d="m57.4747 34h-4.202v9.098c0 2.5098-1.9394 4.3922-4.5252 4.3922h-15.1919l-3.5556 3.7647v.6275c0 2.8235 1.9394 4.7058 4.5253 4.7058h13.2525l9.6969 9.4118v-9.4118c2.5859 0 4.5253-1.8823 4.5253-4.3921v-13.4902c0-2.5098-2.2626-4.7059-4.5253-4.7059z"/><path d="m32.2222 44.4951h13.2525c2.5859 0 4.5253-1.901 4.5253-4.4357v-13.6238c0-2.5346-1.9394-4.4356-4.5253-4.4356h-22.9494c-2.2627 0-4.5253 1.901-4.5253 4.4356v13.6238c0 2.5347 1.9394 4.4357 4.5253 4.4357v9.5049z"/></g></svg>