<svg fill="none" height="80" viewBox="0 0 80 80" width="80" xmlns="http://www.w3.org/2000/svg"><path d="m40 80c22.0914 0 40-17.9086 40-40s-17.9086-40-40-40-40 17.9086-40 40 17.9086 40 40 40z" fill="#ffa237"/><path clip-rule="evenodd" d="m16 24h12c1.1046 0 2 .8954 2 2v21c0 1.1046-.8954 2-2 2h-12c-1.1046 0-2-.8954-2-2v-21c0-1.1046.8954-2 2-2zm1 2c-.5523 0-1 .4477-1 1s.4477 1 1 1h7c.5523 0 1-.4477 1-1s-.4477-1-1-1zm17-2h12c1.1046 0 2 .8954 2 2v12c0 1.1046-.8954 2-2 2h-12c-1.1046 0-2-.8954-2-2v-12c0-1.1046.8954-2 2-2zm1 2c-.5523 0-1 .4477-1 1s.4477 1 1 1h7c.5523 0 1-.4477 1-1s-.4477-1-1-1zm29-2h-12c-1.1046 0-2 .8954-2 2v28c0 1.1046.8954 2 2 2h12c1.1046 0 2-.8954 2-2v-28c0-1.1046-.8954-2-2-2zm-12 3c0-.5523.4477-1 1-1h7c.5523 0 1 .4477 1 1s-.4477 1-1 1h-7c-.5523 0-1-.4477-1-1z" fill="#fff" fill-rule="evenodd"/></svg>